<svg xmlns="http://www.w3.org/2000/svg" enable-background="new 0 0 24 24" viewBox="0 0 24 24" id="Parkinglot"><path d="M3.8281,16.2427l3.9297,3.9287c1.1328,1.1333,2.6396,1.7573,4.2422,1.7573s3.1094-0.624,4.2422-1.7573l3.9297-3.9287
			c2.3389-2.3394,2.3389-6.146,0-8.4854l-3.9297-3.9287C15.1094,2.6953,13.6025,2.0713,12,2.0713s-3.1094,0.624-4.2422,1.7573
			L3.8281,7.7573C1.4893,10.0967,1.4893,13.9033,3.8281,16.2427z M5.2422,9.1714l3.9297-3.9287
			C9.9277,4.4873,10.9316,4.0713,12,4.0713s2.0723,0.416,2.8281,1.1714l3.9297,3.9287c1.5596,1.5596,1.5596,4.0977,0,5.6572
			l-3.9297,3.9287c-1.5117,1.5107-4.1445,1.5107-5.6563,0l-3.9297-3.9287C3.6826,13.269,3.6826,10.731,5.2422,9.1714z" fill="#34a853" class="color000000 svgShape"></path><path d="M10.5996,17c0.5527,0,1-0.4478,1-1v-2.2002H13c1.875,0,3.4004-1.5254,3.4004-3.3999S14.875,7,13,7h-2.4004
			c-0.5527,0-1,0.4478-1,1v4.7998V16C9.5996,16.5522,10.0469,17,10.5996,17z M14.4004,10.3999c0,0.772-0.6279,1.3999-1.4004,1.3999
			h-1.4004V9H13C13.7725,9,14.4004,9.6279,14.4004,10.3999z" fill="#34a853" class="color000000 svgShape"></path></svg>